<svg width="220" height="197" viewBox="0 0 220 197" fill="none" xmlns="http://www.w3.org/2000/svg">
<path d="M3 2.5H19.5C24.8645 2.85482 27.041 4.71273 29 11.5L48.0753 108.5M194.5 146C194.5 146 73.5 146 68 146C62.5 146 54 137.5 53 133C52 128.5 48.0753 108.5 48.0753 108.5M48.0753 108.5C48.0753 108.5 179 109 186.5 108.5C194 108 198.5 104.5 200.5 98.5C202.5 92.5 214.5 39.5 216.5 32C218.5 24.5 217 14.5 203.5 14.5C190 14.5 29.5 14.5 29.5 14.5" stroke="#2B5F9B" stroke-width="5" stroke-linecap="round" stroke-linejoin="round"/>
<circle cx="180" cy="180" r="14.5" stroke="#2B5F9B" stroke-width="5"/>
<path d="M82.5 180C82.5 188.008 76.0081 194.5 68 194.5C59.9919 194.5 53.5 188.008 53.5 180C53.5 171.992 59.9919 165.5 68 165.5C76.0081 165.5 82.5 171.992 82.5 180Z" stroke="#2B5F9B" stroke-width="5"/>
</svg>
