<svg width="15" height="13" viewBox="0 0 15 13" fill="none" xmlns="http://www.w3.org/2000/svg">
<path d="M14.707 4.53564C14.8242 4.44775 15 4.53564 15 4.68213V10.6587C15 11.4497 14.3555 12.0649 13.5938 12.0649H1.40625C0.615234 12.0649 0 11.4497 0 10.6587V4.68213C0 4.53564 0.146484 4.44775 0.263672 4.53564C0.9375 5.06299 1.78711 5.70752 4.77539 7.87549C5.39062 8.31494 6.44531 9.28174 7.5 9.28174C8.52539 9.28174 9.60938 8.31494 10.1953 7.87549C13.1836 5.70752 14.0332 5.06299 14.707 4.53564ZM7.5 8.31494C6.79688 8.34424 5.83008 7.46533 5.33203 7.11377C1.43555 4.30127 1.14258 4.0376 0.263672 3.33447C0.0878906 3.21729 0 3.01221 0 2.77783V2.22119C0 1.45947 0.615234 0.814941 1.40625 0.814941H13.5938C14.3555 0.814941 15 1.45947 15 2.22119V2.77783C15 3.01221 14.8828 3.21729 14.707 3.33447C13.8281 4.0376 13.5352 4.30127 9.63867 7.11377C9.14062 7.46533 8.17383 8.34424 7.5 8.31494Z" fill="#3291E8"/>
</svg>
