<svg width="45" height="45" viewBox="0 0 45 45" fill="none" xmlns="http://www.w3.org/2000/svg">
<path d="M22.5 44.5C10.3497 44.5 0.499999 34.6503 0.499998 22.5C0.499997 10.3497 10.3497 0.500003 22.5 0.500002C34.6503 0.500001 44.5 10.3497 44.5 22.5C44.5 34.6503 34.6503 44.5 22.5 44.5ZM32.125 23.875C32.8844 23.875 33.5 23.2594 33.5 22.5C33.5 21.7406 32.8844 21.125 32.125 21.125L16.1945 21.125L22.0973 15.2223C22.6342 14.6853 22.6342 13.8147 22.0973 13.2777C21.5603 12.7408 20.6897 12.7408 20.1527 13.2777L11.9027 21.5277C11.3658 22.0647 11.3658 22.9353 11.9027 23.4723L20.1527 31.7223C20.6897 32.2592 21.5603 32.2592 22.0973 31.7223C22.6342 31.1853 22.6342 30.3147 22.0973 29.7777L16.1945 23.875L32.125 23.875Z" fill="#008001"/>
</svg>
