<svg width="15" height="16" viewBox="0 0 15 16" fill="none" xmlns="http://www.w3.org/2000/svg">
<path d="M14.5605 11.3755C14.7949 11.4927 14.9707 11.7563 14.9707 12.0493C14.9707 12.0786 14.9707 12.1372 14.9707 12.1958L14.2676 15.2427C14.1797 15.5649 13.916 15.77 13.5938 15.77C6.06445 15.77 0 9.70557 0 2.17627C0 1.854 0.205078 1.59033 0.527344 1.50244L3.57422 0.799316C3.63281 0.799316 3.69141 0.77002 3.7207 0.77002C4.01367 0.77002 4.27734 0.945801 4.39453 1.20947L5.80078 4.49072C5.83008 4.57861 5.85938 4.6665 5.85938 4.75439C5.85938 4.98877 5.74219 5.19385 5.5957 5.31104L3.80859 6.77588C4.89258 9.06104 6.70898 10.8774 8.99414 11.9614L10.459 10.1743C10.5762 10.0278 10.7812 9.91064 10.9863 9.91064C11.1035 9.91064 11.1914 9.93994 11.2793 9.96924L14.5605 11.3755Z" fill="#3291E8"/>
</svg>
